<svg version="1.1" id="Layer_1" xmlns="http://www.w3.org/2000/svg" xmlns:xlink="http://www.w3.org/1999/xlink" x="0px" y="0px"
	 viewBox="0 0 656.5 52" style="enable-background:new 0 0 656.5 52;" xml:space="preserve">
<style type="text/css">
	.st0{fill:#5F51BC;}
</style>
<g>
	<g>
		<path class="st0" d="M19.3,51.9c80.6-6.4,161.4-10.5,242.3-12.3c80.2-1.8,160.5-1.3,240.7,1.5c45,1.6,90,3.9,134.9,6.9
			c10.1,0.7,19.7-9.4,19.3-19.3c-0.5-11-8.5-18.6-19.3-19.3c-80.4-5.4-161-8.5-241.6-9.3C315.2-0.6,234.9,1,154.7,4.8
			c-45.2,2.1-90.3,5-135.4,8.6c-5.2,0.4-9.9,1.9-13.6,5.7C2.3,22.4-0.2,27.8,0,32.6C0.5,42.4,8.5,52.8,19.3,51.9L19.3,51.9z"/>
	</g>
</g>
</svg>