<svg version="1.1" id="Layer_1" xmlns="http://www.w3.org/2000/svg" xmlns:xlink="http://www.w3.org/1999/xlink" x="0px" y="0px"
	 viewBox="0 0 236.6 236.6" style="enable-background:new 0 0 236.6 236.6;" xml:space="preserve">
<style type="text/css">
	.st0{fill:none;stroke:#FFFFFF;stroke-width:11.8339;stroke-linecap:round;stroke-linejoin:round;stroke-miterlimit:133.3333;}
</style>
<path class="st0" d="M149.5,49.6c9.2,1.8,18.3,5.9,25,12.5c6.6,6.6,10.7,15.8,12.5,25 M155.8,5.9c19.1,2.1,36.3,11.4,50,25
	s22.8,30.8,25,50 M230.7,174.2v33.8c0.1,12.9-11.6,23.7-24.6,22.6C93.3,230.7,5.9,142.5,6,30.5c-1.2-13,9.6-24.6,22.5-24.6h33.9
	c5.5-0.1,10.8,1.9,15,5.5C89.2,21.5,96.8,56,93.9,69.7c-2.3,10.7-13.1,18.2-20.4,25.5c16.1,28.2,39.5,51.6,67.8,67.7
	c7.3-7.3,14.8-18.1,25.5-20.4c13.7-2.9,48.4,4.7,58.5,16.6C229,163.3,230.9,168.7,230.7,174.2z"/>
</svg>